<svg width="81" height="82" viewBox="0 0 81 82" fill="none" xmlns="http://www.w3.org/2000/svg">
<path d="M28.0249 80.8926C27.6343 81.4298 27.0438 81.7936 26.3857 81.8834C16.1125 83.2851 4.72671 71.7831 6.11559 61.8162C7.5501 51.5219 20.7002 53.8616 24.0472 55.2653C27.3054 56.6319 35.3217 70.8581 28.0249 80.8926Z" fill="#D881CA"/>
<path d="M79.8651 21.1631C80.42 20.7775 80.7998 20.1817 80.8915 19.5123C82.24 9.6652 70.7635 -1.21975 60.8162 0.110964C50.5219 1.48809 52.8616 14.1122 54.2653 17.3253C55.6306 20.4504 69.8321 28.1348 79.8651 21.1631Z" fill="#D881CA"/>
<path d="M6.59359 49.1813C-4.8658 40.4159 6.09247 20.217 16.1516 22.399C26.2106 24.581 28.414 37.1147 27.5275 41.3874C26.444 46.6095 12.4517 53.6622 6.59359 49.1813Z" fill="#D881CA"/>
<path d="M46.9902 3.87128C37.0639 -6.59865 18.1348 6.43091 21.3666 16.2034C24.5984 25.9759 37.2947 26.8436 41.4499 25.511C46.5285 23.8823 52.0645 9.22353 46.9902 3.87128Z" fill="#D881CA"/>
</svg>
