<svg width="298" height="172" viewBox="0 0 298 172" fill="none" xmlns="http://www.w3.org/2000/svg">
<path fill-rule="evenodd" clip-rule="evenodd" d="M10 40.4335V5.79248L280.559 162H222V162.831L10 40.4335Z" fill="url(#paint0_linear_5_1147)"/>
<mask id="mask0_5_1147" style="mask-type:alpha" maskUnits="userSpaceOnUse" x="0" y="0" width="298" height="172">
<path fill-rule="evenodd" clip-rule="evenodd" d="M0 34.6597V0.0186768L297.88 172H237.88L0 34.6597Z" fill="url(#paint1_linear_5_1147)"/>
</mask>
<g mask="url(#mask0_5_1147)">
<path d="M-15.2688 14.3104C-15.3831 14.2444 -15.4534 14.1623 -15.4798 14.0639C-15.5001 13.9552 -15.4803 13.8488 -15.4203 13.7449L-9.54332 3.56565C-9.47732 3.45133 -9.39515 3.381 -9.29679 3.35465C-9.19244 3.3179 -9.08311 3.33253 -8.96879 3.39853L-1.28368 7.83553C-1.16936 7.90153 -1.10203 7.9889 -1.08168 8.09765C-1.04493 8.202 -1.05956 8.31133 -1.12556 8.42565L-7.00256 18.6049C-7.06256 18.7088 -7.14993 18.7762 -7.26468 18.8069C-7.36303 18.8333 -7.46937 18.8134 -7.58368 18.7474L-8.37869 18.2884C-8.48261 18.2284 -8.55295 18.1463 -8.5897 18.0419C-8.61005 17.9332 -8.59023 17.8268 -8.53023 17.7229L-3.24723 8.57249L-8.60966 5.47649L-13.8927 14.6269C-13.9527 14.7308 -14.04 14.7982 -14.1548 14.8289C-14.2531 14.8553 -14.3595 14.8354 -14.4738 14.7694L-15.2688 14.3104ZM-5.42945 23.9403C-5.53337 23.8803 -5.60071 23.7929 -5.63145 23.6782C-5.65781 23.5798 -5.64098 23.4787 -5.58098 23.3747L0.395017 13.024C0.455017 12.9201 0.534194 12.8549 0.632548 12.8286C0.747294 12.7978 0.856629 12.8125 0.960552 12.8725L1.67762 13.2865C1.78154 13.3465 1.84368 13.4308 1.86404 13.5396C1.90078 13.6439 1.88916 13.7481 1.82916 13.852L1.43316 14.5379C1.88057 14.3389 2.37812 14.2452 2.92582 14.2565C3.47351 14.2679 4.05912 14.4536 4.68266 14.8136C5.26463 15.1496 5.70127 15.5333 5.99257 15.9648C6.29426 16.4022 6.47601 16.8674 6.53782 17.3604C6.61002 17.8593 6.58767 18.366 6.47077 18.8805C6.35387 19.395 6.15661 19.9046 5.879 20.4095C5.7934 20.5817 5.69659 20.7614 5.58859 20.9485C5.48059 21.1355 5.3734 21.3092 5.267 21.4695C4.97461 21.9519 4.63187 22.3776 4.23877 22.7464C3.85167 23.1049 3.42402 23.3776 2.95582 23.5646C2.50401 23.7471 2.01026 23.8223 1.47457 23.7902C0.955266 23.7536 0.404632 23.5673 -0.177337 23.2313C-0.780091 22.8833 -1.22631 22.4802 -1.51601 22.022C-1.78931 21.5594 -1.95986 21.0868 -2.02767 20.6042L-4.11567 24.2207C-4.17567 24.3247 -4.25484 24.3898 -4.3532 24.4162C-4.45755 24.4529 -4.56689 24.4383 -4.6812 24.3723L-5.42945 23.9403ZM0.224305 21.7797C0.764705 22.0917 1.25159 22.2204 1.68497 22.1657C2.13474 22.1067 2.53517 21.9291 2.88627 21.633C3.24337 21.3265 3.55832 20.961 3.8311 20.5365C4.01549 20.2412 4.18949 19.9398 4.3531 19.6324C4.58432 19.1839 4.74037 18.7336 4.82127 18.2815C4.90817 17.819 4.86174 17.3834 4.68197 16.9748C4.51859 16.5618 4.1667 16.1992 3.6263 15.8872C3.11708 15.5932 2.63239 15.4728 2.17223 15.5258C1.72246 15.5848 1.31163 15.7564 0.939748 16.0405C0.584255 16.3202 0.285117 16.6464 0.0423325 17.0189C-0.0640599 17.1791 -0.183256 17.3736 -0.315256 17.6022C-0.447256 17.8309 -0.55906 18.0365 -0.650668 18.2192C-0.850275 18.5889 -0.974137 18.9954 -1.02225 19.4388C-1.05998 19.8881 -0.983756 20.3201 -0.793595 20.7347C-0.603434 21.1494 -0.264134 21.4977 0.224305 21.7797ZM6.15901 26.6818C6.06548 26.6278 6.00034 26.5486 5.96359 26.4443C5.94324 26.3355 5.95706 26.2396 6.00506 26.1564L10.2891 18.7363C10.3491 18.6324 10.4282 18.5673 10.5266 18.5409C10.6413 18.5102 10.7507 18.5248 10.8546 18.5848L11.6028 19.0168C11.7068 19.0768 11.7689 19.1612 11.7893 19.2699C11.8156 19.3683 11.7988 19.4694 11.7388 19.5733L7.92279 26.1828L7.76049 25.5279L16.1288 21.9416C16.2168 21.9093 16.3039 21.8903 16.3903 21.8847C16.4826 21.8688 16.5756 21.8878 16.6691 21.9418L17.3862 22.3558C17.4693 22.4038 17.524 22.477 17.5504 22.5753C17.5871 22.6797 17.5815 22.7734 17.5335 22.8566L13.2405 30.2923C13.1805 30.3962 13.0931 30.4635 12.9784 30.4943C12.88 30.5206 12.7789 30.5038 12.675 30.4438L11.9423 30.0208C11.828 29.9548 11.7577 29.8726 11.7313 29.7743C11.711 29.6655 11.7308 29.5592 11.7908 29.4553L15.3818 23.2355L15.8273 23.4719L7.40079 27.087C7.32922 27.1149 7.24726 27.1369 7.1549 27.1528C7.06255 27.1688 6.96441 27.1468 6.86049 27.0868L6.15901 26.6818ZM16.2818 32.5262C16.1778 32.4662 16.1127 32.387 16.0863 32.2886C16.06 32.1903 16.0768 32.0891 16.1368 31.9852L20.4478 24.5183C20.4958 24.4352 20.566 24.3857 20.6583 24.3697C20.7671 24.3493 20.8578 24.3602 20.9306 24.4022L21.7256 24.8612C21.8919 24.9572 21.9738 25.1153 21.9713 25.3356L21.7593 31.8227L27.287 28.4046C27.4765 28.2923 27.6544 28.2842 27.8207 28.3802L28.6001 28.8302C28.6832 28.8782 28.738 28.9513 28.7643 29.0497C28.7967 29.1377 28.7889 29.2232 28.7409 29.3063L24.4299 36.7732C24.3699 36.8771 24.2907 36.9423 24.1923 36.9686C24.094 36.995 23.998 36.9812 23.9045 36.9272L23.1407 36.4862C23.0368 36.4262 22.9716 36.347 22.9453 36.2486C22.9189 36.1503 22.9357 36.0491 22.9957 35.9452L26.5867 29.7254L27.0963 30.1028L21.7834 33.437C21.6715 33.5109 21.5551 33.5685 21.4344 33.6096C21.3136 33.6508 21.1805 33.6293 21.035 33.5453L20.6297 33.3113C20.4946 33.2333 20.4147 33.1318 20.3899 33.0066C20.3652 32.8815 20.3516 32.7489 20.3493 32.609L20.5233 26.6196L21.0335 26.8518L17.5865 32.8222C17.5265 32.9261 17.4474 32.9913 17.349 33.0176C17.2507 33.044 17.1495 33.0272 17.0456 32.9672L16.2818 32.5262ZM30.3249 40.8418C29.2545 40.2238 28.5913 39.4045 28.3354 38.3837C28.0855 37.3526 28.2593 36.2475 28.857 35.0684C28.9246 34.9273 29.0184 34.7528 29.1384 34.5449C29.2644 34.3267 29.3716 34.153 29.46 34.0239C29.9275 33.3101 30.471 32.7647 31.0904 32.388C31.7158 32.0008 32.3752 31.8065 33.0689 31.8051C33.7729 31.8097 34.4782 32.016 35.1849 32.424C35.9747 32.88 36.5386 33.4273 36.8766 34.0659C37.225 34.7104 37.3625 35.4203 37.2891 36.1954C37.2157 36.9706 36.942 37.7686 36.468 38.5896L36.315 38.8546C36.249 38.969 36.1616 39.0363 36.0529 39.0566C35.9545 39.083 35.8534 39.0662 35.7495 39.0062L30.3559 35.8922C30.3499 35.9026 30.3379 35.9234 30.3199 35.9545C30.3019 35.9857 30.2869 36.0117 30.2749 36.0325C30.0496 36.4706 29.9122 36.9247 29.8625 37.3948C29.8187 37.8545 29.8868 38.2887 30.0665 38.6973C30.2463 39.106 30.5544 39.4363 30.9909 39.6883C31.365 39.9043 31.7098 40.0271 32.0252 40.0568C32.3406 40.0865 32.6153 40.0788 32.8491 40.0337C33.089 39.9782 33.256 39.9291 33.3499 39.8863C33.5214 39.8052 33.6392 39.7693 33.7032 39.7785C33.7731 39.7773 33.8653 39.8097 33.9796 39.8757L34.7278 40.3077C34.8317 40.3677 34.8969 40.4469 34.9232 40.5453C34.966 40.6392 34.9522 40.7352 34.8818 40.8331C34.7814 40.983 34.5872 41.1272 34.2993 41.2659C34.0175 41.3941 33.668 41.4833 33.251 41.5336C32.8341 41.5838 32.3757 41.5617 31.876 41.4672C31.3823 41.3623 30.8653 41.1538 30.3249 40.8418ZM30.9769 34.8166L35.2481 37.2826L35.2751 37.2358C35.5451 36.7682 35.6968 36.3015 35.7301 35.8357C35.7738 35.376 35.6946 34.9492 35.4924 34.5554C35.2963 34.1511 34.9748 33.82 34.5279 33.562C34.081 33.304 33.6335 33.1911 33.1853 33.2234C32.7536 33.2512 32.3496 33.399 31.9733 33.6667C31.597 33.9345 31.2739 34.3022 31.0039 34.7698L30.9769 34.8166ZM35.1986 47.3969C35.0947 47.3369 35.0273 47.2495 34.9966 47.1348C34.9702 47.0364 34.987 46.9353 35.047 46.8313L41.023 36.4806C41.083 36.3767 41.1622 36.3115 41.2606 36.2852C41.3753 36.2544 41.4847 36.2691 41.5886 36.3291L42.3056 36.7431C42.4096 36.8031 42.4717 36.8874 42.4921 36.9962C42.5288 37.1005 42.5172 37.2047 42.4572 37.3086L42.0612 37.9945C42.5086 37.7955 43.0061 37.7018 43.5538 37.7131C44.1015 37.7245 44.6871 37.9102 45.3107 38.2702C45.8927 38.6062 46.3293 38.9899 46.6206 39.4214C46.9223 39.8588 47.104 40.324 47.1658 40.817C47.238 41.3159 47.2157 41.8226 47.0988 42.3371C46.9819 42.8516 46.7846 43.3612 46.507 43.8661C46.4214 44.0383 46.3246 44.218 46.2166 44.4051C46.1086 44.5921 46.0014 44.7658 45.895 44.9261C45.6026 45.4085 45.2599 45.8342 44.8668 46.203C44.4797 46.5615 44.052 46.8342 43.5838 47.0212C43.132 47.2037 42.6383 47.2789 42.1026 47.2468C41.5833 47.2102 41.0327 47.0239 40.4507 46.6879C39.8479 46.3399 39.4017 45.9368 39.112 45.4786C38.8387 45.016 38.6682 44.5434 38.6004 44.0608L36.5124 47.6773C36.4524 47.7813 36.3732 47.8464 36.2748 47.8728C36.1705 47.9095 36.0611 47.8949 35.9468 47.8289L35.1986 47.3969ZM40.8523 45.2363C41.3927 45.5483 41.8796 45.677 42.313 45.6223C42.7628 45.5633 43.1632 45.3857 43.5143 45.0896C43.8714 44.7831 44.1863 44.4176 44.4591 43.9931C44.6435 43.6978 44.8175 43.3964 44.9811 43.089C45.2123 42.6405 45.3684 42.1902 45.4493 41.7381C45.5362 41.2756 45.4898 40.84 45.31 40.4314C45.1466 40.0184 44.7947 39.6558 44.2543 39.3438C43.7451 39.0498 43.2604 38.9294 42.8003 38.9824C42.3505 39.0414 41.9397 39.213 41.5678 39.4971C41.2123 39.7768 40.9131 40.103 40.6704 40.4755C40.564 40.6357 40.4448 40.8302 40.3128 41.0588C40.1808 41.2875 40.069 41.4931 39.9774 41.6758C39.7777 42.0455 39.6539 42.452 39.6058 42.8954C39.568 43.3447 39.6443 43.7767 39.8344 44.1913C40.0246 44.606 40.3639 44.9543 40.8523 45.2363Z" fill="white"/>
<path d="M69.6017 63.3104C69.4874 63.2444 69.417 63.1623 69.3907 63.0639C69.3703 62.9552 69.3902 62.8488 69.4502 62.7449L75.3272 52.5656C75.3932 52.4513 75.4753 52.381 75.5737 52.3546C75.678 52.3179 75.7874 52.3325 75.9017 52.3985L83.5868 56.8355C83.7011 56.9015 83.7685 56.9889 83.7888 57.0976C83.8256 57.202 83.8109 57.3113 83.7449 57.4256L77.8679 67.6049C77.8079 67.7088 77.7206 67.7762 77.6058 67.8069C77.5075 67.8333 77.4011 67.8134 77.2868 67.7474L76.4918 67.2884C76.3879 67.2284 76.3175 67.1463 76.2808 67.0419C76.2604 66.9332 76.2803 66.8268 76.3403 66.7229L81.6233 57.5725L76.2608 54.4765L70.9778 63.6269C70.9178 63.7308 70.8305 63.7982 70.7157 63.8289C70.6174 63.8553 70.511 63.8354 70.3967 63.7694L69.6017 63.3104ZM79.441 72.9403C79.3371 72.8803 79.2698 72.7929 79.239 72.6782C79.2127 72.5798 79.2295 72.4787 79.2895 72.3747L85.2655 62.024C85.3255 61.9201 85.4047 61.8549 85.503 61.8286C85.6178 61.7978 85.7271 61.8125 85.831 61.8725L86.5481 62.2865C86.652 62.3465 86.7142 62.4308 86.7345 62.5396C86.7713 62.6439 86.7596 62.7481 86.6996 62.852L86.3036 63.5379C86.7511 63.3389 87.2486 63.2452 87.7963 63.2565C88.344 63.2679 88.9296 63.4536 89.5531 63.8136C90.1351 64.1496 90.5717 64.5333 90.863 64.9648C91.1647 65.4022 91.3465 65.8674 91.4083 66.3604C91.4805 66.8593 91.4581 67.366 91.3412 67.8805C91.2243 68.395 91.0271 68.9046 90.7495 69.4095C90.6639 69.5817 90.5671 69.7614 90.4591 69.9485C90.3511 70.1355 90.2439 70.3092 90.1375 70.4695C89.8451 70.9519 89.5023 71.3776 89.1092 71.7464C88.7221 72.1049 88.2945 72.3776 87.8263 72.5646C87.3745 72.7471 86.8807 72.8223 86.345 72.7902C85.8257 72.7536 85.2751 72.5673 84.6931 72.2313C84.0904 71.8833 83.6442 71.4802 83.3545 71.022C83.0812 70.5594 82.9106 70.0868 82.8428 69.6042L80.7548 73.2207C80.6948 73.3247 80.6156 73.3898 80.5173 73.4162C80.4129 73.4529 80.3036 73.4383 80.1893 73.3723L79.441 72.9403ZM85.0948 70.7797C85.6352 71.0917 86.1221 71.2204 86.5555 71.1657C87.0052 71.1067 87.4057 70.9291 87.7568 70.633C88.1139 70.3265 88.4288 69.961 88.7016 69.5365C88.886 69.2412 89.06 68.9398 89.2236 68.6324C89.4548 68.1839 89.6109 67.7336 89.6918 67.2815C89.7787 66.819 89.7322 66.3834 89.5525 65.9748C89.3891 65.5618 89.0372 65.1992 88.4968 64.8872C87.9876 64.5932 87.5029 64.4728 87.0427 64.5258C86.5929 64.5848 86.1821 64.7564 85.8102 65.0405C85.4547 65.3202 85.1556 65.6464 84.9128 66.0189C84.8064 66.1791 84.6872 66.3736 84.5552 66.6022C84.4232 66.8309 84.3114 67.0365 84.2198 67.2192C84.0202 67.5889 83.8963 67.9954 83.8482 68.4388C83.8105 68.8881 83.8867 69.3201 84.0769 69.7347C84.267 70.1494 84.6063 70.4977 85.0948 70.7797ZM91.0295 75.6818C90.936 75.6278 90.8708 75.5486 90.8341 75.4443C90.8137 75.3355 90.8275 75.2396 90.8755 75.1564L95.1595 67.7363C95.2195 67.6324 95.2987 67.5673 95.3971 67.5409C95.5118 67.5102 95.6212 67.5248 95.7251 67.5848L96.4733 68.0168C96.5772 68.0768 96.6394 68.1612 96.6597 68.2699C96.6861 68.3683 96.6693 68.4694 96.6093 68.5733L92.7933 75.1828L92.631 74.5279L100.999 70.9416C101.087 70.9093 101.174 70.8903 101.261 70.8847C101.353 70.8688 101.446 70.8878 101.54 70.9418L102.257 71.3558C102.34 71.4038 102.395 71.477 102.421 71.5753C102.458 71.6797 102.452 71.7734 102.404 71.8566L98.111 79.2923C98.051 79.3962 97.9636 79.4635 97.8489 79.4943C97.7505 79.5206 97.6494 79.5038 97.5455 79.4438L96.8128 79.0208C96.6985 78.9548 96.6282 78.8726 96.6018 78.7743C96.5814 78.6655 96.6013 78.5592 96.6613 78.4553L100.252 72.2355L100.698 72.4719L92.2713 76.087C92.1997 76.1149 92.1177 76.1369 92.0254 76.1528C91.933 76.1688 91.8349 76.1468 91.731 76.0868L91.0295 75.6818ZM101.152 81.5262C101.048 81.4662 100.983 81.387 100.957 81.2886C100.93 81.1903 100.947 81.0891 101.007 80.9852L105.318 73.5183C105.366 73.4352 105.436 73.3857 105.529 73.3697C105.638 73.3493 105.728 73.3602 105.801 73.4022L106.596 73.8612C106.762 73.9572 106.844 74.1153 106.842 74.3356L106.63 80.8227L112.157 77.4046C112.347 77.2923 112.525 77.2842 112.691 77.3802L113.471 77.8302C113.554 77.8782 113.608 77.9513 113.635 78.0497C113.667 78.1377 113.659 78.2232 113.611 78.3063L109.3 85.7732C109.24 85.8771 109.161 85.9423 109.063 85.9686C108.964 85.995 108.869 85.9812 108.775 85.9272L108.011 85.4862C107.907 85.4262 107.842 85.347 107.816 85.2486C107.789 85.1503 107.806 85.0491 107.866 84.9452L111.457 78.7254L111.967 79.1028L106.654 82.437C106.542 82.5109 106.426 82.5685 106.305 82.6096C106.184 82.6508 106.051 82.6293 105.905 82.5453L105.5 82.3113C105.365 82.2333 105.285 82.1318 105.26 82.0066C105.236 81.8815 105.222 81.7489 105.22 81.609L105.394 75.6196L105.904 75.8518L102.457 81.8222C102.397 81.9261 102.318 81.9913 102.219 82.0176C102.121 82.044 102.02 82.0272 101.916 81.9672L101.152 81.5262ZM115.195 89.8418C114.125 89.2238 113.462 88.4045 113.206 87.3837C112.956 86.3526 113.13 85.2475 113.727 84.0684C113.795 83.9273 113.889 83.7528 114.009 83.5449C114.135 83.3267 114.242 83.153 114.33 83.0239C114.798 82.3101 115.341 81.7647 115.961 81.388C116.586 81.0008 117.246 80.8065 117.939 80.8051C118.643 80.8097 119.349 81.016 120.055 81.424C120.845 81.88 121.409 82.4273 121.747 83.0659C122.096 83.7104 122.233 84.4203 122.16 85.1954C122.086 85.9706 121.812 86.7686 121.338 87.5896L121.185 87.8546C121.119 87.969 121.032 88.0363 120.923 88.0566C120.825 88.083 120.724 88.0662 120.62 88.0062L115.226 84.8922C115.22 84.9026 115.208 84.9234 115.19 84.9545C115.172 84.9857 115.157 85.0117 115.145 85.0325C114.92 85.4706 114.783 85.9247 114.733 86.3948C114.689 86.8545 114.757 87.2887 114.937 87.6973C115.117 88.106 115.425 88.4363 115.861 88.6883C116.235 88.9043 116.58 89.0271 116.896 89.0568C117.211 89.0865 117.486 89.0788 117.72 89.0337C117.96 88.9782 118.126 88.9291 118.22 88.8863C118.392 88.8052 118.51 88.7693 118.574 88.7785C118.644 88.7773 118.736 88.8097 118.85 88.8757L119.598 89.3077C119.702 89.3677 119.767 89.4469 119.794 89.5453C119.836 89.6392 119.823 89.7352 119.752 89.8331C119.652 89.983 119.458 90.1272 119.17 90.2659C118.888 90.3941 118.539 90.4833 118.122 90.5336C117.705 90.5838 117.246 90.5617 116.747 90.4672C116.253 90.3623 115.736 90.1538 115.195 89.8418ZM115.847 83.8166L120.119 86.2826L120.146 86.2358C120.416 85.7682 120.567 85.3015 120.601 84.8357C120.644 84.376 120.565 83.9492 120.363 83.5554C120.167 83.1511 119.845 82.82 119.398 82.562C118.952 82.304 118.504 82.1911 118.056 82.2234C117.624 82.2512 117.22 82.399 116.844 82.6667C116.467 82.9345 116.144 83.3022 115.874 83.7698L115.847 83.8166ZM120.069 96.3969C119.965 96.3369 119.898 96.2495 119.867 96.1348C119.841 96.0364 119.858 95.9353 119.918 95.8313L125.894 85.4806C125.954 85.3767 126.033 85.3115 126.131 85.2852C126.246 85.2544 126.355 85.2691 126.459 85.3291L127.176 85.7431C127.28 85.8031 127.342 85.8874 127.363 85.9962C127.399 86.1005 127.388 86.2047 127.328 86.3086L126.932 86.9945C127.379 86.7955 127.877 86.7018 128.424 86.7131C128.972 86.7245 129.558 86.9102 130.181 87.2702C130.763 87.6062 131.2 87.9899 131.491 88.4214C131.793 88.8588 131.975 89.324 132.036 89.817C132.109 90.3159 132.086 90.8226 131.969 91.3371C131.852 91.8516 131.655 92.3612 131.378 92.8661C131.292 93.0383 131.195 93.218 131.087 93.4051C130.979 93.5921 130.872 93.7658 130.766 93.9261C130.473 94.4085 130.13 94.8342 129.737 95.203C129.35 95.5615 128.923 95.8342 128.454 96.0212C128.003 96.2037 127.509 96.2789 126.973 96.2468C126.454 96.2102 125.903 96.0239 125.321 95.6879C124.718 95.3399 124.272 94.9368 123.983 94.4786C123.709 94.016 123.539 93.5434 123.471 93.0608L121.383 96.6773C121.323 96.7813 121.244 96.8464 121.145 96.8728C121.041 96.9095 120.932 96.8949 120.817 96.8289L120.069 96.3969ZM125.723 94.2363C126.263 94.5483 126.75 94.677 127.183 94.6223C127.633 94.5633 128.034 94.3857 128.385 94.0896C128.742 93.7831 129.057 93.4176 129.33 92.9931C129.514 92.6978 129.688 92.3964 129.852 92.089C130.083 91.6405 130.239 91.1902 130.32 90.7381C130.407 90.2756 130.36 89.84 130.18 89.4314C130.017 89.0184 129.665 88.6558 129.125 88.3438C128.616 88.0498 128.131 87.9294 127.671 87.9824C127.221 88.0414 126.81 88.213 126.438 88.4971C126.083 88.7768 125.784 89.103 125.541 89.4755C125.434 89.6357 125.315 89.8302 125.183 90.0588C125.051 90.2875 124.939 90.4931 124.848 90.6758C124.648 91.0455 124.524 91.452 124.476 91.8954C124.439 92.3447 124.515 92.7767 124.705 93.1913C124.895 93.606 125.234 93.9543 125.723 94.2363Z" fill="white"/>
<path d="M154.472 112.311C154.358 112.245 154.287 112.162 154.261 112.064C154.241 111.955 154.261 111.849 154.321 111.745L160.198 101.566C160.264 101.451 160.346 101.381 160.444 101.355C160.548 101.318 160.658 101.333 160.772 101.399L168.457 105.836C168.571 105.902 168.639 105.989 168.659 106.098C168.696 106.202 168.681 106.311 168.615 106.426L162.738 116.605C162.678 116.709 162.591 116.776 162.476 116.807C162.378 116.833 162.271 116.814 162.157 116.748L161.362 116.289C161.258 116.229 161.188 116.146 161.151 116.042C161.131 115.933 161.151 115.827 161.211 115.723L166.494 106.573L161.131 103.477L155.848 112.627C155.788 112.731 155.701 112.798 155.586 112.829C155.488 112.855 155.381 112.836 155.267 112.77L154.472 112.311ZM164.311 121.94C164.207 121.88 164.14 121.793 164.109 121.678C164.083 121.58 164.1 121.479 164.16 121.375L170.136 111.024C170.196 110.92 170.275 110.855 170.373 110.829C170.488 110.798 170.597 110.813 170.701 110.873L171.418 111.287C171.522 111.347 171.585 111.431 171.605 111.54C171.642 111.644 171.63 111.748 171.57 111.852L171.174 112.538C171.621 112.339 172.119 112.245 172.667 112.257C173.214 112.268 173.8 112.454 174.424 112.814C175.005 113.15 175.442 113.533 175.733 113.965C176.035 114.402 176.217 114.868 176.279 115.36C176.351 115.859 176.329 116.366 176.212 116.881C176.095 117.395 175.897 117.905 175.62 118.41C175.534 118.582 175.437 118.762 175.329 118.949C175.221 119.136 175.114 119.309 175.008 119.47C174.715 119.952 174.373 120.378 173.98 120.747C173.593 121.105 173.165 121.378 172.697 121.565C172.245 121.747 171.751 121.822 171.215 121.79C170.696 121.754 170.145 121.567 169.564 121.231C168.961 120.883 168.515 120.48 168.225 120.022C167.952 119.559 167.781 119.087 167.713 118.604L165.625 122.221C165.565 122.325 165.486 122.39 165.388 122.416C165.283 122.453 165.174 122.438 165.06 122.372L164.311 121.94ZM169.965 119.78C170.506 120.092 170.992 120.22 171.426 120.166C171.876 120.107 172.276 119.929 172.627 119.633C172.984 119.327 173.299 118.961 173.572 118.537C173.756 118.241 173.93 117.94 174.094 117.633C174.325 117.184 174.481 116.734 174.562 116.282C174.649 115.819 174.603 115.384 174.423 114.975C174.259 114.562 173.908 114.199 173.367 113.887C172.858 113.593 172.373 113.473 171.913 113.526C171.463 113.585 171.052 113.756 170.681 114.041C170.325 114.32 170.026 114.646 169.783 115.019C169.677 115.179 169.558 115.374 169.426 115.602C169.294 115.831 169.182 116.037 169.09 116.219C168.891 116.589 168.767 116.996 168.719 117.439C168.681 117.888 168.757 118.32 168.947 118.735C169.137 119.149 169.477 119.498 169.965 119.78ZM175.9 124.682C175.806 124.628 175.741 124.549 175.704 124.444C175.684 124.336 175.698 124.24 175.746 124.157L180.03 116.736C180.09 116.633 180.169 116.567 180.267 116.541C180.382 116.51 180.492 116.525 180.595 116.585L181.344 117.017C181.448 117.077 181.51 117.161 181.53 117.27C181.556 117.368 181.54 117.47 181.48 117.573L177.664 124.183L177.501 123.528L185.87 119.942C185.958 119.909 186.045 119.89 186.131 119.885C186.223 119.869 186.316 119.888 186.41 119.942L187.127 120.356C187.21 120.404 187.265 120.477 187.291 120.575C187.328 120.68 187.322 120.774 187.274 120.857L182.981 128.292C182.921 128.396 182.834 128.464 182.719 128.494C182.621 128.521 182.52 128.504 182.416 128.444L181.683 128.021C181.569 127.955 181.499 127.873 181.472 127.774C181.452 127.666 181.472 127.559 181.532 127.455L185.123 121.236L185.568 121.472L177.142 125.087C177.07 125.115 176.988 125.137 176.896 125.153C176.803 125.169 176.705 125.147 176.601 125.087L175.9 124.682ZM186.023 130.526C185.919 130.466 185.854 130.387 185.827 130.289C185.801 130.19 185.818 130.089 185.878 129.985L190.189 122.518C190.237 122.435 190.307 122.386 190.399 122.37C190.508 122.349 190.599 122.36 190.671 122.402L191.466 122.861C191.633 122.957 191.715 123.115 191.712 123.336L191.5 129.823L197.028 126.405C197.217 126.292 197.395 126.284 197.562 126.38L198.341 126.83C198.424 126.878 198.479 126.951 198.505 127.05C198.538 127.138 198.53 127.223 198.482 127.306L194.171 134.773C194.111 134.877 194.032 134.942 193.933 134.969C193.835 134.995 193.739 134.981 193.645 134.927L192.882 134.486C192.778 134.426 192.712 134.347 192.686 134.249C192.66 134.15 192.677 134.049 192.737 133.945L196.328 127.726L196.837 128.103L191.524 131.437C191.412 131.511 191.296 131.569 191.175 131.61C191.054 131.651 190.921 131.629 190.776 131.545L190.371 131.311C190.235 131.233 190.156 131.132 190.131 131.007C190.106 130.882 190.092 130.749 190.09 130.609L190.264 124.62L190.774 124.852L187.327 130.822C187.267 130.926 187.188 130.991 187.09 131.018C186.992 131.044 186.89 131.027 186.786 130.967L186.023 130.526ZM200.066 138.842C198.995 138.224 198.332 137.405 198.076 136.384C197.826 135.353 198 134.248 198.598 133.068C198.665 132.927 198.759 132.753 198.879 132.545C199.005 132.327 199.112 132.153 199.201 132.024C199.668 131.31 200.212 130.765 200.831 130.388C201.457 130.001 202.116 129.807 202.81 129.805C203.514 129.81 204.219 130.016 204.926 130.424C205.716 130.88 206.279 131.427 206.617 132.066C206.966 132.711 207.103 133.42 207.03 134.196C206.957 134.971 206.683 135.769 206.209 136.59L206.056 136.855C205.99 136.969 205.902 137.036 205.794 137.057C205.695 137.083 205.594 137.066 205.49 137.006L200.097 133.892C200.091 133.903 200.079 133.923 200.061 133.955C200.043 133.986 200.028 134.012 200.016 134.033C199.79 134.471 199.653 134.925 199.603 135.395C199.56 135.855 199.628 136.289 199.807 136.697C199.987 137.106 200.295 137.436 200.732 137.688C201.106 137.904 201.451 138.027 201.766 138.057C202.081 138.087 202.356 138.079 202.59 138.034C202.83 137.978 202.997 137.929 203.091 137.886C203.262 137.805 203.38 137.769 203.444 137.779C203.514 137.777 203.606 137.81 203.72 137.876L204.469 138.308C204.573 138.368 204.638 138.447 204.664 138.545C204.707 138.639 204.693 138.735 204.623 138.833C204.522 138.983 204.328 139.127 204.04 139.266C203.758 139.394 203.409 139.483 202.992 139.534C202.575 139.584 202.117 139.562 201.617 139.467C201.123 139.362 200.606 139.154 200.066 138.842ZM200.718 132.817L204.989 135.283L205.016 135.236C205.286 134.768 205.438 134.302 205.471 133.836C205.515 133.376 205.435 132.949 205.233 132.555C205.037 132.151 204.716 131.82 204.269 131.562C203.822 131.304 203.374 131.191 202.926 131.223C202.494 131.251 202.09 131.399 201.714 131.667C201.338 131.935 201.015 132.302 200.745 132.77L200.718 132.817ZM204.939 145.397C204.835 145.337 204.768 145.25 204.737 145.135C204.711 145.037 204.728 144.935 204.788 144.831L210.764 134.481C210.824 134.377 210.903 134.312 211.001 134.285C211.116 134.255 211.225 134.269 211.329 134.329L212.046 134.743C212.15 134.803 212.213 134.888 212.233 134.996C212.27 135.101 212.258 135.205 212.198 135.309L211.802 135.995C212.249 135.796 212.747 135.702 213.295 135.713C213.842 135.725 214.428 135.91 215.052 136.27C215.633 136.606 216.07 136.99 216.361 137.421C216.663 137.859 216.845 138.324 216.907 138.817C216.979 139.316 216.957 139.823 216.84 140.337C216.723 140.852 216.525 141.361 216.248 141.866C216.162 142.038 216.065 142.218 215.957 142.405C215.849 142.592 215.742 142.766 215.636 142.926C215.343 143.409 215.001 143.834 214.608 144.203C214.221 144.562 213.793 144.834 213.325 145.021C212.873 145.204 212.379 145.279 211.843 145.247C211.324 145.21 210.773 145.024 210.192 144.688C209.589 144.34 209.143 143.937 208.853 143.479C208.58 143.016 208.409 142.543 208.341 142.061L206.253 145.677C206.193 145.781 206.114 145.847 206.016 145.873C205.911 145.91 205.802 145.895 205.688 145.829L204.939 145.397ZM210.593 143.236C211.134 143.548 211.62 143.677 212.054 143.622C212.504 143.563 212.904 143.386 213.255 143.09C213.612 142.783 213.927 142.418 214.2 141.993C214.384 141.698 214.558 141.396 214.722 141.089C214.953 140.641 215.109 140.19 215.19 139.738C215.277 139.276 215.231 138.84 215.051 138.432C214.887 138.018 214.536 137.656 213.995 137.344C213.486 137.05 213.001 136.929 212.541 136.983C212.091 137.042 211.681 137.213 211.309 137.497C210.953 137.777 210.654 138.103 210.411 138.476C210.305 138.636 210.186 138.83 210.054 139.059C209.922 139.288 209.81 139.493 209.718 139.676C209.519 140.046 209.395 140.452 209.347 140.896C209.309 141.345 209.385 141.777 209.575 142.191C209.765 142.606 210.105 142.954 210.593 143.236Z" fill="white"/>
<path d="M239.343 161.31C239.228 161.244 239.158 161.162 239.132 161.064C239.111 160.955 239.131 160.849 239.191 160.745L245.068 150.565C245.134 150.451 245.216 150.381 245.315 150.354C245.419 150.318 245.528 150.332 245.643 150.398L253.328 154.835C253.442 154.901 253.51 154.989 253.53 155.097C253.567 155.202 253.552 155.311 253.486 155.425L247.609 165.605C247.549 165.709 247.462 165.776 247.347 165.807C247.249 165.833 247.142 165.813 247.028 165.747L246.233 165.288C246.129 165.228 246.059 165.146 246.022 165.042C246.002 164.933 246.021 164.827 246.081 164.723L251.364 155.572L246.002 152.476L240.719 161.627C240.659 161.731 240.572 161.798 240.457 161.829C240.358 161.855 240.252 161.835 240.138 161.769L239.343 161.31ZM249.182 170.94C249.078 170.88 249.011 170.793 248.98 170.678C248.954 170.58 248.971 170.478 249.031 170.375L255.007 160.024C255.067 159.92 255.146 159.855 255.244 159.828C255.359 159.798 255.468 159.812 255.572 159.872L256.289 160.286C256.393 160.346 256.455 160.431 256.476 160.539C256.512 160.644 256.501 160.748 256.441 160.852L256.045 161.538C256.492 161.339 256.99 161.245 257.537 161.256C258.085 161.268 258.671 161.453 259.294 161.813C259.876 162.149 260.313 162.533 260.604 162.965C260.906 163.402 261.088 163.867 261.149 164.36C261.222 164.859 261.199 165.366 261.082 165.88C260.965 166.395 260.768 166.904 260.491 167.409C260.405 167.582 260.308 167.761 260.2 167.948C260.092 168.135 259.985 168.309 259.879 168.469C259.586 168.952 259.243 169.377 258.85 169.746C258.463 170.105 258.036 170.377 257.567 170.564C257.116 170.747 256.622 170.822 256.086 170.79C255.567 170.753 255.016 170.567 254.434 170.231C253.831 169.883 253.385 169.48 253.096 169.022C252.822 168.559 252.652 168.087 252.584 167.604L250.496 171.221C250.436 171.324 250.357 171.39 250.258 171.416C250.154 171.453 250.045 171.438 249.93 171.372L249.182 170.94ZM254.836 168.779C255.376 169.091 255.863 169.22 256.297 169.166C256.746 169.107 257.147 168.929 257.498 168.633C257.855 168.326 258.17 167.961 258.443 167.536C258.627 167.241 258.801 166.94 258.965 166.632C259.196 166.184 259.352 165.733 259.433 165.281C259.52 164.819 259.473 164.383 259.294 163.975C259.13 163.562 258.778 163.199 258.238 162.887C257.729 162.593 257.244 162.473 256.784 162.526C256.334 162.585 255.923 162.756 255.551 163.04C255.196 163.32 254.897 163.646 254.654 164.019C254.548 164.179 254.428 164.373 254.296 164.602C254.164 164.831 254.053 165.036 253.961 165.219C253.761 165.589 253.637 165.995 253.589 166.439C253.552 166.888 253.628 167.32 253.818 167.735C254.008 168.149 254.347 168.497 254.836 168.779ZM260.771 173.682C260.677 173.628 260.612 173.548 260.575 173.444C260.555 173.335 260.569 173.239 260.617 173.156L264.901 165.736C264.961 165.632 265.04 165.567 265.138 165.541C265.253 165.51 265.362 165.525 265.466 165.585L266.214 166.017C266.318 166.077 266.38 166.161 266.401 166.27C266.427 166.368 266.41 166.469 266.35 166.573L262.534 173.183L262.372 172.528L270.74 168.941C270.828 168.909 270.915 168.89 271.002 168.885C271.094 168.869 271.187 168.888 271.281 168.942L271.998 169.356C272.081 169.404 272.136 169.477 272.162 169.575C272.199 169.679 272.193 169.773 272.145 169.856L267.852 177.292C267.792 177.396 267.705 177.463 267.59 177.494C267.492 177.52 267.39 177.504 267.287 177.444L266.554 177.021C266.44 176.955 266.369 176.872 266.343 176.774C266.323 176.665 266.342 176.559 266.402 176.455L269.993 170.235L270.439 170.472L262.012 174.087C261.941 174.115 261.859 174.137 261.766 174.153C261.674 174.169 261.576 174.147 261.472 174.087L260.771 173.682ZM270.893 179.526C270.789 179.466 270.724 179.387 270.698 179.288C270.672 179.19 270.688 179.089 270.748 178.985L275.059 171.518C275.107 171.435 275.178 171.385 275.27 171.37C275.379 171.349 275.469 171.36 275.542 171.402L276.337 171.861C276.503 171.957 276.585 172.115 276.583 172.335L276.371 178.823L281.899 175.404C282.088 175.292 282.266 175.284 282.432 175.38L283.212 175.83C283.295 175.878 283.35 175.951 283.376 176.05C283.408 176.137 283.4 176.223 283.352 176.306L279.041 183.773C278.981 183.877 278.902 183.942 278.804 183.968C278.706 183.995 278.61 183.981 278.516 183.927L277.752 183.486C277.648 183.426 277.583 183.347 277.557 183.248C277.53 183.15 277.547 183.049 277.607 182.945L281.198 176.725L281.708 177.103L276.395 180.437C276.283 180.511 276.167 180.568 276.046 180.609C275.925 180.651 275.792 180.629 275.647 180.545L275.241 180.311C275.106 180.233 275.026 180.132 275.001 180.006C274.977 179.881 274.963 179.749 274.961 179.609L275.135 173.619L275.645 173.852L272.198 179.822C272.138 179.926 272.059 179.991 271.961 180.017C271.862 180.044 271.761 180.027 271.657 179.967L270.893 179.526ZM284.936 187.842C283.866 187.224 283.203 186.404 282.947 185.384C282.697 184.352 282.871 183.247 283.469 182.068C283.536 181.927 283.63 181.753 283.75 181.545C283.876 181.327 283.983 181.153 284.072 181.024C284.539 180.31 285.083 179.765 285.702 179.388C286.327 179.001 286.987 178.806 287.68 178.805C288.384 178.81 289.09 179.016 289.796 179.424C290.586 179.88 291.15 180.427 291.488 181.066C291.837 181.71 291.974 182.42 291.901 183.195C291.827 183.97 291.554 184.768 291.08 185.589L290.927 185.854C290.861 185.969 290.773 186.036 290.664 186.056C290.566 186.083 290.465 186.066 290.361 186.006L284.967 182.892C284.961 182.902 284.949 182.923 284.931 182.954C284.913 182.986 284.898 183.012 284.886 183.032C284.661 183.47 284.524 183.924 284.474 184.395C284.43 184.854 284.498 185.289 284.678 185.697C284.858 186.106 285.166 186.436 285.602 186.688C285.977 186.904 286.321 187.027 286.637 187.057C286.952 187.086 287.227 187.079 287.461 187.033C287.701 186.978 287.868 186.929 287.961 186.886C288.133 186.805 288.251 186.769 288.315 186.778C288.385 186.777 288.477 186.81 288.591 186.876L289.339 187.308C289.443 187.368 289.508 187.447 289.535 187.545C289.578 187.639 289.564 187.735 289.493 187.833C289.393 187.983 289.199 188.127 288.911 188.266C288.629 188.394 288.28 188.483 287.863 188.533C287.446 188.584 286.987 188.561 286.488 188.467C285.994 188.362 285.477 188.154 284.936 187.842ZM285.588 181.816L289.86 184.282L289.887 184.236C290.157 183.768 290.308 183.301 290.342 182.836C290.385 182.376 290.306 181.949 290.104 181.555C289.908 181.151 289.586 180.82 289.139 180.562C288.693 180.304 288.245 180.191 287.797 180.223C287.365 180.251 286.961 180.399 286.585 180.667C286.209 180.934 285.885 181.302 285.615 181.77L285.588 181.816ZM289.81 194.397C289.706 194.337 289.639 194.249 289.608 194.135C289.582 194.036 289.599 193.935 289.659 193.831L295.635 183.48C295.695 183.376 295.774 183.311 295.872 183.285C295.987 183.254 296.096 183.269 296.2 183.329L296.917 183.743C297.021 183.803 297.083 183.887 297.104 183.996C297.14 184.1 297.129 184.204 297.069 184.308L296.673 184.994C297.12 184.795 297.618 184.702 298.165 184.713C298.713 184.724 299.299 184.91 299.922 185.27C300.504 185.606 300.941 185.99 301.232 186.421C301.534 186.859 301.716 187.324 301.777 187.817C301.85 188.316 301.827 188.822 301.71 189.337C301.593 189.851 301.396 190.361 301.119 190.866C301.033 191.038 300.936 191.218 300.828 191.405C300.72 191.592 300.613 191.766 300.507 191.926C300.214 192.408 299.871 192.834 299.478 193.203C299.091 193.561 298.664 193.834 298.195 194.021C297.744 194.204 297.25 194.279 296.714 194.247C296.195 194.21 295.644 194.024 295.062 193.688C294.46 193.34 294.013 192.937 293.724 192.478C293.45 192.016 293.28 191.543 293.212 191.061L291.124 194.677C291.064 194.781 290.985 194.846 290.886 194.873C290.782 194.909 290.673 194.895 290.558 194.829L289.81 194.397ZM295.464 192.236C296.004 192.548 296.491 192.677 296.925 192.622C297.374 192.563 297.775 192.386 298.126 192.089C298.483 191.783 298.798 191.417 299.071 190.993C299.255 190.698 299.429 190.396 299.593 190.089C299.824 189.64 299.98 189.19 300.061 188.738C300.148 188.275 300.101 187.84 299.922 187.431C299.758 187.018 299.406 186.656 298.866 186.344C298.357 186.05 297.872 185.929 297.412 185.982C296.962 186.041 296.551 186.213 296.179 186.497C295.824 186.777 295.525 187.103 295.282 187.475C295.176 187.636 295.056 187.83 294.924 188.059C294.792 188.287 294.681 188.493 294.589 188.676C294.389 189.045 294.265 189.452 294.217 189.895C294.18 190.345 294.256 190.777 294.446 191.191C294.636 191.606 294.975 191.954 295.464 192.236Z" fill="white"/>
<path d="M59.4445 49.1267C60.132 48.5078 61.2099 49.1301 61.0176 50.0349C60.9315 50.4396 61.1159 50.8536 61.4741 51.0604C62.2753 51.523 62.0165 52.7404 61.0965 52.8371C60.6851 52.8803 60.3483 53.1836 60.2623 53.5883C60.0699 54.4931 58.8321 54.6232 58.4559 53.7781C58.2876 53.4002 57.8951 53.1736 57.4837 53.2168C56.5637 53.3135 56.0575 52.1765 56.7449 51.5575C57.0523 51.2807 57.1466 50.8374 56.9783 50.4595C56.6021 49.6144 57.527 48.7816 58.3281 49.2441C58.6864 49.4509 59.1371 49.4036 59.4445 49.1267Z" fill="white"/>
<path d="M144.315 98.1267C145.002 97.5078 146.08 98.1301 145.888 99.0349C145.802 99.4396 145.986 99.8536 146.345 100.06C147.146 100.523 146.887 101.74 145.967 101.837C145.556 101.88 145.219 102.184 145.133 102.588C144.94 103.493 143.703 103.623 143.326 102.778C143.158 102.4 142.766 102.174 142.354 102.217C141.434 102.314 140.928 101.176 141.615 100.558C141.923 100.281 142.017 99.8374 141.849 99.4595C141.473 98.6144 142.397 97.7816 143.199 98.2441C143.557 98.4509 144.008 98.4036 144.315 98.1267Z" fill="white"/>
<path d="M229.186 147.127C229.873 146.508 230.951 147.13 230.759 148.035C230.673 148.44 230.857 148.854 231.215 149.061C232.016 149.523 231.757 150.74 230.837 150.837C230.426 150.88 230.089 151.184 230.003 151.588C229.811 152.493 228.573 152.623 228.197 151.778C228.029 151.4 227.636 151.174 227.225 151.217C226.305 151.314 225.798 150.177 226.486 149.558C226.793 149.281 226.888 148.837 226.719 148.46C226.343 147.614 227.268 146.782 228.069 147.244C228.427 147.451 228.878 147.404 229.186 147.127Z" fill="white"/>
</g>
<defs>
<linearGradient id="paint0_linear_5_1147" x1="8.64618" y1="20" x2="260.146" y2="165" gradientUnits="userSpaceOnUse">
<stop stop-color="#8396F3"/>
<stop offset="1" stop-color="#7B81F0"/>
</linearGradient>
<linearGradient id="paint1_linear_5_1147" x1="8.64625" y1="20" x2="260.146" y2="165" gradientUnits="userSpaceOnUse">
<stop stop-color="#8396F3"/>
<stop offset="1" stop-color="#7B81F0"/>
</linearGradient>
</defs>
</svg>
