<svg width="19" height="27" viewBox="0 0 19 27" fill="none" xmlns="http://www.w3.org/2000/svg">
<g clip-path="url(#clip0_20_200)">
<path d="M4.85671 0C4.60608 0 4.36572 0.0995622 4.1885 0.276784C4.01128 0.454006 3.91171 0.69437 3.91171 0.945V25.11H1.32781C1.07718 25.11 0.836819 25.2096 0.659597 25.3868C0.482375 25.564 0.382813 25.8044 0.382812 26.055C0.382813 26.3056 0.482375 26.546 0.659597 26.7232C0.836819 26.9004 1.07718 27 1.32781 27H8.07781C8.32844 27 8.56881 26.9004 8.74603 26.7232C8.92325 26.546 9.02281 26.3056 9.02281 26.055C9.02281 25.8044 8.92325 25.564 8.74603 25.3868C8.56881 25.2096 8.32844 25.11 8.07781 25.11H5.80171V12.69H17.4117C17.6623 12.69 17.9027 12.5904 18.0799 12.4132C18.2572 12.236 18.3567 11.9956 18.3567 11.745V0.945C18.3567 0.69437 18.2572 0.454006 18.0799 0.276784C17.9027 0.0995622 17.6623 0 17.4117 0H4.99171C4.96883 6.92952e-05 4.94595 0.000969889 4.92313 0.0027C4.90103 0.00102133 4.87888 0.000120775 4.85671 0V0ZM8.58271 1.89H11.2287V3.8961H13.8747V1.89H16.4667V3.8961H13.8747V6.54183H16.4667V9.18783H13.8747V10.8H11.2287V9.1881H8.58271V10.8H5.93671V9.1881H8.58271V6.54183H5.93671V3.89583H8.58271V1.89ZM8.58271 3.8961V6.54183H11.2287V3.89583H8.58271V3.8961ZM11.2287 6.54183V9.18783H13.8747V6.54183H11.2287Z" fill="#B1B1B1"/>
</g>
<defs>
<clipPath id="clip0_20_200">
<rect width="18.36" height="27" fill="white"/>
</clipPath>
</defs>
</svg>
