<svg width="18" height="27" viewBox="0 0 18 27" fill="none" xmlns="http://www.w3.org/2000/svg">
<path d="M4.76118 0C4.51546 0 4.27981 0.0995622 4.10606 0.276784C3.93232 0.454006 3.83471 0.69437 3.83471 0.945V25.11H1.30147C1.05576 25.11 0.820104 25.2096 0.646357 25.3868C0.47261 25.564 0.375 25.8044 0.375 26.055C0.375 26.3056 0.47261 26.546 0.646357 26.7232C0.820104 26.9004 1.05576 27 1.30147 27H7.91912C8.16483 27 8.40049 26.9004 8.57423 26.7232C8.74798 26.546 8.84559 26.3056 8.84559 26.055C8.84559 25.8044 8.74798 25.564 8.57423 25.3868C8.40049 25.2096 8.16483 25.11 7.91912 25.11H5.68765V12.69H17.07C17.3157 12.69 17.5514 12.5904 17.7251 12.4132C17.8989 12.236 17.9965 11.9956 17.9965 11.745V0.945C17.9965 0.69437 17.8989 0.454006 17.7251 0.276784C17.5514 0.0995622 17.3157 0 17.07 0H4.89353C4.87109 6.92952e-05 4.84867 0.000969889 4.82629 0.0027C4.80463 0.00102133 4.78291 0.000120775 4.76118 0V0ZM5.82 1.89H16.1435V10.8H5.82V1.89Z" fill="#939393"/>
</svg>
