<svg width="162" height="52" viewBox="0 0 162 52" fill="none" xmlns="http://www.w3.org/2000/svg">
<path d="M46.7873 6.65322C46.3323 6.82594 45.8389 6.9205 45.3233 6.9205C43.0448 6.9205 41.1977 5.07337 41.1977 2.79482C41.1977 1.71661 41.6113 0.734998 42.2885 0H40.5766C39.8906 0 39.3345 0.556123 39.3345 1.24214V14.1959C39.3345 14.8819 39.8906 15.438 40.5766 15.438H45.5452C46.2312 15.438 46.7873 14.8819 46.7873 14.1959V6.65322Z" fill="white"/>
<path d="M4.451 41.7152C6.02496 42.4402 7.14231 42.7503 10.0406 42.8538H17.9103C18.3677 42.8538 18.7356 42.4831 18.7356 42.0258V37.4864C18.7356 37.0651 18.42 36.7109 18.0014 36.6624C16.3636 36.4727 12.4854 36.0133 11.5933 35.8151C10.4547 35.562 8.90201 34.8834 8.28094 34.2624C7.44185 33.4233 6.93529 32.1576 6.72826 31.4676C6.68593 31.3264 6.63797 31.1839 6.58788 31.035L6.5878 31.0348C6.34397 30.3101 6.04959 29.4353 6.10719 27.8446C6.17663 26.1842 6.52124 24.9463 7.24582 23.9112C8.17743 22.7726 9.69919 21.9445 10.9722 21.9445C12.037 21.9445 13.353 22.1515 14.0776 22.6691C14.8022 23.1866 15.6168 23.9139 15.9408 25.1533C16.0068 25.406 15.8114 25.7437 15.618 26.078C15.4151 26.4287 15.2143 26.7756 15.3197 27.0166C15.4709 27.3621 15.7338 27.5341 16.1099 27.4087C16.1099 27.4087 17.462 26.617 18.4251 26.6025C19.426 26.5875 20.0813 26.913 20.0813 26.913C20.1131 26.913 20.1512 26.9139 20.1936 26.9149L20.194 26.9149C20.4289 26.9202 20.7918 26.9283 20.9094 26.8095C21.0714 26.6692 21.243 26.3989 21.2199 26.1885C21.016 25.7075 20.6866 25.5331 20.2951 25.3258C20.0988 25.2219 19.8868 25.1097 19.6672 24.9463C18.7356 24.2534 18.3216 23.8668 17.7005 22.9796C17.6005 22.8367 17.4966 22.684 17.3881 22.5247C16.7109 21.5297 15.8586 20.2775 14.6987 19.5637C13.6635 18.9267 12.2907 18.2181 10.763 18.2181C8.61044 18.2181 6.74716 18.5922 5.17321 19.3406C3.59926 20.0656 2.3725 21.1413 1.49294 22.5679C0.613378 23.971 0.127305 25.6899 0.0347195 27.7245C0.0115732 28.7301 0 29.7824 0 30.8816C0 31.9807 0.0115732 33.0097 0.0347195 33.9685C0.127305 36.0499 0.601805 37.7921 1.45822 39.1953C2.33778 40.5984 2.9002 40.9903 4.451 41.7152Z" fill="white"/>
<path d="M22.968 42.5394C23.2076 42.7491 23.4772 42.8539 23.7767 42.8539C25.8132 42.8539 27.5054 42.5993 28.8531 42.0902C30.2008 41.5811 31.264 40.7574 32.0427 39.6194C32.8214 38.4813 33.3605 36.9389 33.66 34.9922C33.9594 33.0455 34.1092 30.6345 34.1092 27.7594V25.3784H39.2305V41.7308C39.2305 42.0602 39.3354 42.3297 39.545 42.5394C39.7846 42.7491 40.0541 42.8539 40.3536 42.8539H45.6547C45.9841 42.8539 46.2536 42.7491 46.4633 42.5394C46.673 42.3297 46.7778 42.0602 46.7778 41.7308V20.6165C46.7778 20.287 46.673 20.0175 46.4633 19.8078C46.2536 19.5982 45.9841 19.4934 45.6547 19.4934H28.0444C27.7449 19.4934 27.4754 19.5982 27.2358 19.8078C27.0262 20.0175 26.9213 20.287 26.9213 20.6165V26.9508C26.9213 29.0772 26.8315 30.8442 26.6518 32.2518C26.4721 33.6594 26.1576 34.7226 25.7084 35.4414C25.2591 36.1602 24.6003 36.5645 23.7317 36.6544C23.0129 36.7442 22.6536 37.1186 22.6536 37.7775V41.7308C22.6536 42.0304 22.7584 42.2999 22.968 42.5394Z" fill="white"/>
<path fill-rule="evenodd" clip-rule="evenodd" d="M56.9306 42.0902C58.6678 42.8988 60.7941 43.3031 63.3099 43.3031C65.8556 43.3031 67.982 42.8988 69.6891 42.0902C71.4262 41.2816 72.7439 40.1284 73.6424 38.631C74.5709 37.1036 75.0949 35.2917 75.2147 33.1952C75.2448 32.5962 75.2597 31.9224 75.2597 31.1736C75.2597 30.395 75.2448 29.7211 75.2147 29.1521C75.0949 27.0257 74.5558 25.2137 73.5975 23.7162C72.6392 22.2188 71.2914 21.0657 69.5543 20.2571C67.8472 19.4484 65.7658 19.0441 63.3099 19.0441C60.8839 19.0441 58.8025 19.4484 57.0654 20.2571C55.3583 21.0657 54.0255 22.2188 53.0672 23.7162C52.1088 25.2137 51.5698 27.0257 51.4499 29.1521C51.4199 29.7211 51.405 30.395 51.405 31.1736C51.405 31.9224 51.4199 32.5962 51.4499 33.1952C51.5698 35.2917 52.0788 37.1036 52.9773 38.631C53.9058 40.1284 55.2235 41.2816 56.9306 42.0902ZM66.2299 36.6095C65.631 37.4181 64.6576 37.8224 63.3099 37.8224C61.9921 37.8224 61.0187 37.4181 60.3898 36.6095C59.7608 35.8008 59.4164 34.5879 59.3565 32.9706C59.3265 32.5214 59.3116 31.9224 59.3116 31.1736C59.3116 30.4249 59.3265 29.8259 59.3565 29.3767C59.4164 27.7894 59.7608 26.5914 60.3898 25.7827C61.0187 24.9442 61.9921 24.5249 63.3099 24.5249C64.6576 24.5249 65.631 24.9442 66.2299 25.7827C66.8588 26.5914 67.2182 27.7894 67.3081 29.3767C67.3381 29.8259 67.353 30.4249 67.353 31.1736C67.353 31.9224 67.3381 32.5214 67.3081 32.9706C67.2182 34.5879 66.8588 35.8008 66.2299 36.6095Z" fill="white"/>
<path d="M79.9924 42.5394C80.2021 42.7491 80.4717 42.8539 80.8011 42.8539H86.1021C86.4017 42.8539 86.6563 42.7491 86.8658 42.5394C87.1055 42.3297 87.2252 42.0602 87.2252 41.7308V33.9589H95.3115V41.7308C95.3115 42.0602 95.4165 42.3297 95.626 42.5394C95.8357 42.7491 96.1053 42.8539 96.4346 42.8539H101.736C102.035 42.8539 102.29 42.7491 102.499 42.5394C102.739 42.3297 102.859 42.0602 102.859 41.7308V20.6165C102.859 20.287 102.739 20.0175 102.499 19.8078C102.29 19.5982 102.035 19.4934 101.736 19.4934H96.4346C96.1053 19.4934 95.8357 19.5982 95.626 19.8078C95.4165 20.0175 95.3115 20.287 95.3115 20.6165V28.0739H87.2252V20.6165C87.2252 20.287 87.1055 20.0175 86.8658 19.8078C86.6563 19.5982 86.4017 19.4934 86.1021 19.4934H80.8011C80.4717 19.4934 80.2021 19.5982 79.9924 19.8078C79.7829 20.0175 79.6779 20.287 79.6779 20.6165V41.7308C79.6779 42.0602 79.7829 42.3297 79.9924 42.5394Z" fill="white"/>
<path d="M109.719 51.075C109.958 51.3145 110.243 51.4344 110.572 51.4344H112.773C114.091 51.4344 115.244 51.1949 116.232 50.7156C117.251 50.2664 118.134 49.5925 118.883 48.694C119.632 47.8256 120.321 46.7923 120.95 45.5943C121.608 44.3962 122.237 43.0636 122.836 41.596L131.372 21.0208C131.432 20.901 131.462 20.7962 131.462 20.7063C131.492 20.5865 131.507 20.4967 131.507 20.4368C131.507 20.1972 131.402 19.9875 131.192 19.8078C131.013 19.5982 130.788 19.4934 130.518 19.4934H125.711C125.322 19.4934 125.023 19.5832 124.813 19.7629C124.603 19.9426 124.454 20.1672 124.364 20.4368L119.023 33.4422L113.941 20.4368C113.852 20.1972 113.702 19.9875 113.492 19.8078C113.312 19.5982 113.028 19.4934 112.639 19.4934H107.607C107.308 19.4934 107.068 19.5982 106.888 19.8078C106.709 19.9875 106.589 20.2122 106.529 20.4817C106.529 20.6315 106.574 20.8111 106.664 21.0208L115.61 41.7511L115.379 42.3148C115.05 43.1234 114.735 43.7524 114.436 44.2016C114.166 44.6809 113.852 45.0252 113.492 45.2349C113.133 45.4446 112.669 45.5493 112.099 45.5493H110.572C110.243 45.5493 109.958 45.6541 109.719 45.8638C109.509 46.0735 109.404 46.3431 109.404 46.6724V50.3113C109.404 50.6109 109.509 50.8653 109.719 51.075Z" fill="white"/>
<path d="M135.225 42.5844C135.405 42.764 135.615 42.8539 135.854 42.8539H141.425C141.694 42.8539 141.919 42.764 142.099 42.5844C142.278 42.4047 142.368 42.18 142.368 41.9105V31.6572L146.187 38.3615C146.366 38.661 146.561 38.9006 146.771 39.0803C146.98 39.26 147.235 39.3498 147.534 39.3498H149.331C149.691 39.3498 149.96 39.26 150.14 39.0803C150.35 38.8706 150.529 38.631 150.679 38.3615L154.543 31.6076V41.9105C154.543 42.18 154.632 42.4047 154.812 42.5844C154.992 42.764 155.216 42.8539 155.486 42.8539H161.057C161.326 42.8539 161.551 42.764 161.73 42.5844C161.91 42.4047 162 42.18 162 41.9105V20.3919C162 20.1523 161.91 19.9426 161.73 19.7629C161.551 19.5832 161.326 19.4934 161.057 19.4934H155.89C155.351 19.4934 154.917 19.7629 154.588 20.302L148.433 31.2186L142.323 20.302C141.994 19.7629 141.56 19.4934 141.02 19.4934H135.854C135.615 19.4934 135.405 19.5832 135.225 19.7629C135.046 19.9426 134.956 20.1523 134.956 20.3919V41.9105C134.956 42.18 135.046 42.4047 135.225 42.5844Z" fill="white"/>
<path d="M32.9019 6.9205C33.4175 6.9205 33.9109 6.82594 34.3659 6.65322V14.1959C34.3659 14.8819 33.8098 15.438 33.1237 15.438H28.1552C27.4692 15.438 26.913 14.8819 26.913 14.1959V1.24214C26.913 0.556123 27.4692 0 28.1552 0H29.8671C29.1899 0.734998 28.7763 1.71661 28.7763 2.79482C28.7763 5.07337 30.6234 6.9205 32.9019 6.9205Z" fill="white"/>
</svg>
