<svg width="40" height="26" viewBox="0 0 40 26" fill="none" xmlns="http://www.w3.org/2000/svg">
<path d="M0 3C0 1.34315 1.34315 0 3 0H37C38.6569 0 40 1.34315 40 3C40 4.65685 38.6569 6 37 6H3C1.34315 6 0 4.65685 0 3Z" fill="#3E60B5"/>
<path d="M0 13C0 11.3431 1.34315 10 3 10H37C38.6569 10 40 11.3431 40 13C40 14.6569 38.6569 16 37 16H3C1.34315 16 0 14.6569 0 13Z" fill="#3E60B5"/>
<path d="M0 23C0 21.3431 1.34315 20 3 20H37C38.6569 20 40 21.3431 40 23C40 24.6569 38.6569 26 37 26H3C1.34315 26 0 24.6569 0 23Z" fill="#3E60B5"/>
</svg>
